<?xml version="1.0" standalone="no"?>
<!DOCTYPE svg PUBLIC "-//W3C//DTD SVG 20010904//EN"
 "http://www.w3.org/TR/2001/REC-SVG-20010904/DTD/svg10.dtd">
<svg version="1.0" xmlns="http://www.w3.org/2000/svg"
 width="260.000000pt" height="260.000000pt" viewBox="0 0 260.000000 260.000000"
 preserveAspectRatio="xMidYMid meet">
<metadata>
Created by potrace 1.11, written by Peter Selinger 2001-2013
</metadata>
<g transform="translate(0.000000,260.000000) scale(0.100000,-0.100000)"
fill="#000000" stroke="none">
<path d="M1352 2288 c7 -15 15 -23 17 -17 2 6 -4 18 -13 27 -15 15 -15 15 -4
-10z"/>
<path d="M1224 2286 c-3 -8 -4 -21 -1 -28 3 -7 6 -3 6 10 1 12 6 22 12 22 7 0
9 -11 6 -26 -3 -16 -1 -22 5 -16 13 13 7 44 -9 50 -7 2 -16 -3 -19 -12z"/>
<path d="M1398 2270 c-3 -16 -1 -30 4 -30 4 0 8 14 8 30 0 17 -2 30 -4 30 -2
0 -6 -13 -8 -30z"/>
<path d="M1183 2279 c9 -5 17 -18 17 -27 -1 -15 -2 -15 -15 2 -8 11 -15 15
-15 9 0 -17 27 -36 35 -23 10 17 -5 50 -23 50 -16 -1 -15 -2 1 -11z"/>
<path d="M1333 2271 c1 -14 9 -26 17 -28 10 -3 11 -2 4 4 -7 4 -14 17 -17 28
-5 16 -5 15 -4 -4z"/>
<path d="M1445 2280 c3 -5 8 -10 11 -10 2 0 4 5 4 10 0 6 -5 10 -11 10 -5 0
-7 -4 -4 -10z"/>
<path d="M1116 2273 c5 -5 12 -12 16 -18 4 -6 8 -2 8 8 0 9 -7 17 -17 17 -9 0
-12 -3 -7 -7z"/>
<path d="M1494 2268 c-5 -8 -2 -9 9 -5 11 4 17 1 17 -8 0 -19 -17 -28 -23 -13
-4 9 -6 10 -6 1 -1 -19 16 -24 29 -8 13 16 7 45 -9 45 -5 0 -13 -5 -17 -12z"/>
<path d="M1447 2247 c-3 -8 1 -14 8 -14 7 0 11 6 8 14 -3 7 -6 13 -8 13 -2 0
-5 -6 -8 -13z"/>
<path d="M1554 2236 c-9 -19 -9 -26 0 -29 6 -3 12 8 13 24 3 35 1 36 -13 5z"/>
<path d="M1017 2244 c-3 -3 1 -13 9 -21 8 -8 12 -19 9 -24 -4 -5 1 -6 10 -2 9
3 13 9 7 12 -5 3 -13 14 -18 24 -6 10 -13 15 -17 11z"/>
<path d="M1083 2233 c0 -11 7 -20 14 -20 10 0 10 4 1 16 -7 9 -13 18 -15 20
-1 2 -1 -5 0 -16z"/>
<path d="M1288 2243 c7 -3 16 -2 19 1 4 3 -2 6 -13 5 -11 0 -14 -3 -6 -6z"/>
<path d="M1623 2231 c0 -11 5 -18 9 -15 4 3 5 11 1 19 -7 21 -12 19 -10 -4z"/>
<path d="M1130 2228 c0 -4 4 -8 9 -8 6 0 12 4 15 8 3 5 -1 9 -9 9 -8 0 -15 -4
-15 -9z"/>
<path d="M988 2203 c5 -26 4 -27 -14 -13 -17 14 -18 14 -6 -2 19 -23 40 -13
34 18 -2 13 -8 24 -12 24 -4 0 -5 -12 -2 -27z"/>
<path d="M1597 2223 c-13 -13 -7 -33 11 -33 13 0 14 2 3 9 -7 5 -10 14 -7 20
8 12 3 15 -7 4z"/>
<path d="M1650 2215 c-6 -8 -10 -22 -7 -32 4 -14 5 -13 6 5 1 13 7 22 17 22 9
0 12 -5 8 -12 -4 -7 -3 -8 5 -4 9 6 9 11 0 22 -14 17 -14 17 -29 -1z"/>
<path d="M924 2181 c11 -12 15 -25 10 -33 -6 -11 -5 -11 8 0 15 12 15 15 -3
33 -25 25 -37 25 -15 0z"/>
<path d="M1703 2174 c-6 -13 -8 -26 -3 -29 4 -3 11 7 14 21 9 35 4 39 -11 8z"/>
<path d="M864 2169 c-3 -6 3 -20 14 -32 19 -18 22 -19 27 -4 4 8 2 24 -4 34
-9 15 -10 12 -4 -12 6 -27 5 -29 -11 -16 -9 8 -15 20 -12 28 6 16 0 17 -10 2z"/>
<path d="M1753 2163 c4 -3 0 -14 -8 -23 -14 -15 -14 -18 -1 -23 10 -4 13 -1
10 7 -3 8 -1 17 5 21 15 8 14 25 -1 25 -6 0 -8 -3 -5 -7z"/>
<path d="M824 2135 c-9 -23 15 -48 32 -34 10 8 11 16 3 30 -12 23 -28 25 -35
4z m29 -10 c4 -8 2 -17 -3 -20 -6 -4 -10 -4 -10 -1 0 2 -3 11 -6 20 -3 9 -2
16 4 16 5 0 12 -7 15 -15z"/>
<path d="M1785 2124 c-12 -12 -13 -19 -4 -30 15 -18 16 -18 29 9 10 20 10 21
-3 4 -9 -11 -18 -14 -21 -8 -4 5 4 17 16 25 12 9 17 16 11 16 -6 0 -19 -7 -28
-16z"/>
<path d="M776 2112 c-6 -11 21 -52 35 -52 5 0 0 9 -12 21 -24 24 -18 38 8 18
16 -13 17 -12 4 4 -15 19 -27 22 -35 9z"/>
<path d="M1825 2088 c-11 -16 -12 -24 -3 -29 14 -9 38 0 38 13 0 6 -6 5 -15
-2 -12 -10 -15 -10 -15 3 0 9 10 17 23 19 19 3 19 4 5 10 -12 5 -22 0 -33 -14z"/>
<path d="M737 2074 c-3 -5 6 -17 18 -27 15 -10 26 -13 30 -7 3 5 -1 10 -9 10
-8 0 -19 7 -24 16 -5 9 -12 13 -15 8z"/>
<path d="M1864 2048 c-19 -23 -19 -23 2 -5 25 21 41 23 24 2 -7 -9 -8 -15 -2
-15 12 0 23 26 15 34 -11 10 -19 7 -39 -16z"/>
<path d="M695 2030 c-3 -5 -21 -10 -39 -10 -49 0 -70 -29 -68 -94 0 -39 -4
-56 -14 -60 -16 -6 -19 -26 -3 -26 5 0 7 5 4 10 -3 6 -2 10 3 10 5 0 9 -168 9
-400 0 -221 -3 -396 -7 -389 -6 8 -9 8 -14 0 -4 -6 -3 -11 2 -11 6 0 19 -17
30 -37 17 -33 23 -38 50 -35 37 4 40 -4 10 -29 -11 -11 -16 -19 -11 -19 6 0
16 7 23 15 7 8 17 12 23 8 6 -4 8 0 4 10 -5 14 46 16 590 16 327 0 592 -3 589
-6 -3 -3 6 -12 20 -20 36 -18 40 -16 13 6 l-24 20 49 -2 c60 -2 86 24 86 86 0
26 6 44 18 53 14 10 15 15 4 26 -11 11 -12 10 -7 -4 4 -11 2 -18 -4 -18 -6 0
-11 12 -11 26 0 14 4 23 10 19 6 -4 6 3 0 21 -6 16 -10 142 -10 318 1 283 1
291 22 307 16 12 18 18 8 24 -8 5 -11 4 -7 -2 4 -6 0 -13 -7 -16 -12 -5 -15 8
-15 64 0 84 -6 106 -32 119 -13 7 -229 11 -641 10 -417 0 -625 4 -634 11 -8 7
-14 7 -19 -1z m1243 -455 l-3 -360 -632 0 -633 0 0 361 0 361 635 -1 635 0 -2
-361z m-602 -473 c19 -13 23 -41 8 -57 -18 -18 -46 -19 -62 -3 -34 34 13 88
54 60z"/>
<path d="M1153 1894 c-24 -9 -43 -21 -43 -28 0 -6 22 -34 50 -61 45 -44 53
-48 94 -48 27 1 50 -5 57 -13 22 -27 69 -10 69 26 0 8 -9 21 -21 28 -18 11
-24 11 -38 -2 -28 -26 -95 -21 -127 9 -15 14 -25 28 -21 31 12 12 124 16 164
5 23 -6 63 -27 88 -47 37 -28 54 -34 83 -32 l37 3 -48 48 c-26 27 -69 58 -95
70 -62 27 -190 33 -249 11z m199 -129 c0 -5 -5 -11 -11 -13 -6 -2 -11 4 -11
13 0 9 5 15 11 13 6 -2 11 -8 11 -13z"/>
<path d="M1034 1814 c-53 -52 -91 -129 -97 -196 -3 -27 -3 -48 0 -48 16 0 61
61 77 105 11 29 39 69 67 97 46 46 47 48 29 68 -9 11 -20 20 -24 20 -4 0 -27
-20 -52 -46z"/>
<path d="M1668 1755 c-20 -23 -28 -25 -109 -25 -86 0 -89 -1 -117 -31 -29 -31
-32 -32 -120 -32 -90 0 -91 0 -123 -33 -28 -29 -40 -34 -80 -34 -42 0 -52 -4
-83 -37 -35 -37 -36 -38 -36 -13 0 18 16 41 53 77 46 45 87 64 87 42 0 -14 41
-21 55 -9 37 31 -3 84 -41 55 -11 -8 -29 -15 -41 -15 -28 0 -173 -142 -173
-169 0 -22 20 -81 28 -81 3 0 33 26 66 58 56 54 64 58 104 57 36 -2 47 2 76
31 33 33 35 34 122 34 85 0 89 1 121 32 31 30 36 31 113 31 72 0 82 -2 96 -21
19 -28 74 -30 97 -4 37 41 6 112 -48 112 -14 0 -34 -11 -47 -25z m71 -24 c10
-7 11 -13 2 -30 -13 -23 -13 -23 -35 -15 -16 6 -22 35 -9 47 9 9 25 8 42 -2z
m-549 -47 c0 -9 -5 -14 -12 -12 -18 6 -21 28 -4 28 9 0 16 -7 16 -16z"/>
<path d="M1535 1638 c-11 -6 -24 -17 -28 -25 -6 -10 -39 -13 -132 -13 -90 0
-126 -4 -132 -13 -20 -32 -62 -54 -102 -52 -37 1 -45 -4 -103 -62 -49 -49 -60
-65 -50 -75 12 -12 47 15 107 81 11 13 29 22 39 20 15 -3 5 -17 -47 -69 -71
-70 -73 -81 -20 -112 l30 -17 63 64 c59 60 68 65 107 65 24 0 43 -4 43 -9 0
-12 27 -21 45 -15 20 8 29 42 15 59 -16 19 -35 19 -54 -1 -9 -8 -24 -14 -33
-13 -53 5 -73 -3 -117 -47 -32 -33 -51 -44 -63 -40 -13 6 -5 19 47 71 l64 65
96 0 96 0 34 -35 c34 -35 35 -35 119 -35 73 0 88 -3 107 -21 31 -29 67 -32 93
-8 40 37 22 102 -31 114 -21 5 -33 1 -53 -19 -24 -24 -33 -26 -110 -26 -58 0
-87 4 -92 13 -4 7 -20 22 -35 33 -22 17 -40 20 -107 19 -71 -1 -80 1 -68 13
11 10 43 14 120 14 101 0 108 -1 138 -26 33 -28 58 -28 92 2 52 46 -16 134
-78 100z m53 -56 c4 -26 -22 -40 -43 -22 -11 9 -12 17 -4 32 13 25 43 19 47
-10z m151 -121 c8 -14 7 -22 -4 -31 -19 -16 -45 -6 -45 18 0 36 33 45 49 13z
m-386 -27 c-4 -10 -9 -12 -15 -6 -12 12 -1 35 12 27 5 -3 6 -13 3 -21z"/>
<path d="M1449 1384 c-7 -8 -36 -27 -63 -41 -40 -21 -66 -26 -121 -26 -38 0
-80 5 -91 11 -18 9 -25 7 -44 -13 l-23 -25 39 -17 c58 -26 185 -23 247 5 52
23 98 58 129 98 l19 24 -39 0 c-24 0 -45 -6 -53 -16z"/>
<path d="M540 1802 c0 -5 7 -9 15 -9 8 0 15 4 15 9 0 4 -7 8 -15 8 -8 0 -15
-4 -15 -8z"/>
<path d="M2044 1784 c-18 -15 -18 -15 2 -5 12 6 25 7 29 3 5 -4 5 -1 1 6 -9
15 -8 15 -32 -4z"/>
<path d="M523 1755 c-3 -9 -3 -19 1 -22 3 -4 6 1 6 10 0 10 6 17 14 17 20 0
29 -17 14 -23 -8 -3 -6 -6 5 -6 20 -1 22 10 5 27 -17 17 -37 15 -45 -3z"/>
<path d="M2045 1760 c-13 -6 -15 -9 -5 -9 8 0 22 4 30 9 18 12 2 12 -25 0z"/>
<path d="M2070 1731 c-8 -6 -18 -7 -22 -5 -4 3 -8 1 -8 -5 0 -5 5 -13 10 -16
6 -3 10 -1 10 4 0 6 6 11 14 11 8 0 18 5 21 10 8 12 -5 13 -25 1z"/>
<path d="M500 1697 c0 -6 3 -8 6 -4 3 3 16 2 28 -3 16 -6 23 -5 23 3 0 7 -13
12 -29 13 -15 1 -28 -3 -28 -9z"/>
<path d="M2094 1679 c-3 -6 -14 -9 -24 -6 -13 3 -17 0 -13 -9 4 -10 10 -10 29
-2 13 6 24 15 24 20 0 11 -8 10 -16 -3z"/>
<path d="M490 1644 c0 -8 5 -12 10 -9 6 4 8 11 5 16 -9 14 -15 11 -15 -7z"/>
<path d="M531 1651 c-8 -5 -9 -11 -3 -15 5 -3 12 1 16 9 6 17 6 18 -13 6z"/>
<path d="M2100 1619 c0 -5 5 -7 10 -4 6 3 10 8 10 11 0 2 -4 4 -10 4 -5 0 -10
-5 -10 -11z"/>
<path d="M2065 1610 c-3 -5 -2 -10 4 -10 5 0 13 5 16 10 3 6 2 10 -4 10 -5 0
-13 -4 -16 -10z"/>
<path d="M478 1593 c7 -3 16 -2 19 1 4 3 -2 6 -13 5 -11 0 -14 -3 -6 -6z"/>
<path d="M515 1590 c-3 -5 -1 -10 4 -10 6 0 11 5 11 10 0 6 -2 10 -4 10 -3 0
-8 -4 -11 -10z"/>
<path d="M2070 1562 c0 -5 14 -7 30 -4 17 2 30 6 30 8 0 2 -13 4 -30 4 -16 0
-30 -4 -30 -8z"/>
<path d="M465 1551 c-3 -5 0 -13 6 -17 7 -4 9 -3 5 4 -3 6 2 13 11 15 16 4 16
5 1 6 -9 0 -19 -3 -23 -8z"/>
<path d="M498 1523 c7 -3 16 -2 19 1 4 3 -2 6 -13 5 -11 0 -14 -3 -6 -6z"/>
<path d="M2078 1518 c-7 -16 18 -35 30 -23 3 3 0 5 -6 5 -6 0 -12 8 -14 18 -3
15 -4 16 -10 0z"/>
<path d="M2121 1504 c0 -11 3 -14 6 -6 3 7 2 16 -1 19 -3 4 -6 -2 -5 -13z"/>
<path d="M505 1491 c-3 -5 -1 -12 5 -16 5 -3 10 1 10 9 0 18 -6 21 -15 7z"/>
<path d="M460 1480 c0 -5 7 -7 15 -4 8 4 15 8 15 10 0 2 -7 4 -15 4 -8 0 -15
-4 -15 -10z"/>
<path d="M2070 1460 c0 -6 7 -10 15 -10 8 0 15 2 15 4 0 2 -7 6 -15 10 -8 3
-15 1 -15 -4z"/>
<path d="M2115 1460 c-3 -5 -1 -10 4 -10 6 0 11 5 11 10 0 6 -2 10 -4 10 -3 0
-8 -4 -11 -10z"/>
<path d="M465 1440 c-3 -6 1 -7 9 -4 18 7 21 14 7 14 -6 0 -13 -4 -16 -10z"/>
<path d="M505 1440 c3 -5 8 -10 11 -10 2 0 4 5 4 10 0 6 -5 10 -11 10 -5 0 -7
-4 -4 -10z"/>
<path d="M480 1420 c-12 -7 -10 -9 7 -7 12 0 19 5 17 9 -6 10 -6 10 -24 -2z"/>
<path d="M2078 1413 c7 -3 16 -2 19 1 4 3 -2 6 -13 5 -11 0 -14 -3 -6 -6z"/>
<path d="M2115 1408 c4 -11 0 -18 -12 -21 -15 -4 -16 -5 -1 -6 22 -1 33 18 19
32 -9 9 -11 8 -6 -5z"/>
<path d="M483 1383 c-7 -2 -13 -9 -13 -15 0 -7 5 -6 14 1 7 6 22 8 31 4 13 -4
16 -3 11 5 -7 12 -22 14 -43 5z"/>
<path d="M2065 1360 c-9 -15 3 -30 24 -30 25 0 33 11 20 27 -13 15 -35 17 -44
3z m40 -10 c3 -5 -3 -10 -14 -10 -12 0 -21 5 -21 10 0 6 6 10 14 10 8 0 18 -4
21 -10z"/>
<path d="M516 1336 c5 -12 0 -16 -17 -16 -20 0 -21 2 -9 11 12 9 12 10 1 7
-29 -8 -23 -28 8 -28 31 0 43 21 21 35 -6 3 -7 -1 -4 -9z"/>
<path d="M2054 1308 c-4 -6 -3 -8 4 -5 17 11 41 -3 35 -21 -4 -15 -3 -15 6 -2
8 11 7 18 -6 28 -21 15 -30 15 -39 0z"/>
<path d="M486 1274 c-5 -14 -4 -15 9 -4 17 14 19 20 6 20 -5 0 -12 -7 -15 -16z"/>
<path d="M510 1260 c-8 -5 -10 -10 -5 -10 6 0 17 5 25 10 8 5 11 10 5 10 -5 0
-17 -5 -25 -10z"/>
<path d="M2037 1263 c-11 -11 -8 -20 7 -20 8 0 12 6 9 14 -6 15 -7 15 -16 6z"/>
<path d="M530 1241 c0 -6 5 -11 11 -11 5 0 7 -4 4 -10 -11 -17 -38 -12 -31 6
6 15 4 15 -10 3 -15 -12 -14 -14 5 -23 16 -7 26 -5 37 6 13 13 13 16 0 28 -11
8 -16 9 -16 1z"/>
<path d="M2070 1240 c0 -5 5 -10 10 -10 6 0 10 5 10 10 0 6 -4 10 -10 10 -5 0
-10 -4 -10 -10z"/>
<path d="M2044 1206 c10 -8 15 -19 11 -25 -3 -6 -1 -11 4 -11 20 0 11 29 -11
40 -22 10 -22 10 -4 -4z"/>
<path d="M520 1175 c-10 -12 -9 -16 4 -21 9 -4 20 -4 23 0 4 3 -2 6 -13 6 -18
1 -18 1 0 11 14 9 20 8 27 -2 7 -11 9 -10 9 4 0 21 -33 23 -50 2z"/>
<path d="M554 1115 c-10 -8 -14 -15 -8 -15 6 0 17 7 24 15 16 19 9 19 -16 0z"/>
<path d="M1133 964 c-2 -7 -4 -18 -2 -25 6 -47 -3 -74 -37 -105 -19 -19 -32
-38 -29 -44 4 -6 94 -10 241 -10 200 0 234 2 234 15 0 8 -11 22 -24 30 -30 20
-38 37 -45 100 l-6 49 -164 1 c-115 0 -165 -3 -168 -11z"/>
<path d="M700 924 c-8 -13 -10 -27 -7 -31 4 -3 7 1 7 11 0 9 10 20 22 25 17 6
18 9 6 14 -10 3 -20 -3 -28 -19z"/>
<path d="M1840 942 c0 -5 6 -17 14 -28 12 -15 17 -16 27 -7 10 10 9 15 -1 28
-13 16 -40 21 -40 7z m38 -20 c6 -18 -15 -14 -22 4 -4 10 -1 14 6 12 6 -2 14
-10 16 -16z"/>
<path d="M1808 914 c-7 -6 22 -44 34 -44 5 0 8 5 8 12 0 6 -3 8 -7 4 -4 -3
-12 3 -18 14 -6 11 -14 18 -17 14z"/>
<path d="M726 893 c-10 -26 11 -40 29 -20 8 9 10 12 3 7 -16 -13 -28 -13 -28
0 0 6 10 15 23 20 22 9 22 9 1 9 -12 1 -25 -7 -28 -16z"/>
<path d="M1768 884 c-4 -5 2 -19 12 -32 11 -13 21 -18 25 -12 3 5 1 10 -5 10
-6 0 -14 10 -19 22 -4 12 -10 17 -13 12z"/>
<path d="M770 860 c-6 -12 -9 -24 -7 -27 3 -2 8 5 12 17 6 18 9 19 22 8 14
-11 15 -11 12 1 -8 24 -27 24 -39 1z"/>
<path d="M1720 844 c-8 -11 -11 -16 -6 -12 5 4 16 -2 26 -14 13 -16 19 -18 25
-8 5 8 4 11 -3 6 -6 -3 -14 5 -19 20 -8 25 -9 25 -23 8z"/>
<path d="M830 840 c0 -5 5 -10 11 -10 5 0 7 5 4 10 -3 6 -8 10 -11 10 -2 0 -4
-4 -4 -10z"/>
<path d="M1682 822 c-9 -6 -5 -15 15 -33 23 -20 25 -20 9 -2 -10 12 -15 27
-11 32 7 13 4 14 -13 3z"/>
<path d="M816 811 c-4 -7 -5 -15 -2 -18 9 -9 19 4 14 18 -4 11 -6 11 -12 0z"/>
<path d="M873 808 c0 -7 -4 -22 -7 -33 -5 -15 -4 -15 5 3 7 12 16 22 21 22 5
0 6 5 3 10 -9 14 -22 12 -22 -2z"/>
<path d="M1643 789 c21 -12 22 -35 2 -43 -8 -3 -21 4 -29 16 -14 20 -36 17
-36 -5 0 -18 -564 -17 -581 1 -7 6 -17 12 -21 12 -4 0 -8 -6 -8 -12 0 -10 -27
-13 -104 -13 l-104 0 -62 -73 c-44 -52 -59 -76 -52 -85 8 -9 162 -12 659 -12
584 1 648 2 651 17 4 21 -83 144 -105 150 -10 2 -55 3 -100 2 -72 -1 -83 1
-83 15 0 19 -19 41 -34 41 -6 0 -3 -5 7 -11z m-33 -40 c0 -5 -4 -9 -10 -9 -5
0 -10 7 -10 16 0 8 5 12 10 9 6 -3 10 -10 10 -16z m-615 1 c3 -5 1 -10 -4 -10
-6 0 -11 5 -11 10 0 6 2 10 4 10 3 0 8 -4 11 -10z m-170 -40 c-3 -5 -13 -10
-21 -10 -8 0 -14 5 -14 10 0 6 9 10 21 10 11 0 17 -4 14 -10z m85 1 c0 -6 -9
-9 -19 -8 -11 0 -17 5 -15 9 7 11 34 10 34 -1z m80 -1 c-20 -13 -43 -13 -35 0
3 6 16 10 28 10 18 0 19 -2 7 -10z m90 1 c0 -6 -9 -9 -20 -8 -11 1 -20 5 -20
9 0 4 9 8 20 8 11 0 20 -4 20 -9z m85 0 c-3 -6 -14 -9 -25 -8 -24 2 -15 17 11
17 11 0 18 -4 14 -9z m85 -1 c0 -5 -9 -10 -20 -10 -11 0 -20 5 -20 10 0 6 9
10 20 10 11 0 20 -4 20 -10z m80 0 c0 -5 -9 -10 -20 -10 -11 0 -20 5 -20 10 0
6 9 10 20 10 11 0 20 -4 20 -10z m85 0 c-3 -5 -13 -10 -21 -10 -8 0 -14 5 -14
10 0 6 9 10 21 10 11 0 17 -4 14 -10z m85 0 c0 -5 -6 -10 -14 -10 -8 0 -18 5
-21 10 -3 6 3 10 14 10 12 0 21 -4 21 -10z m90 -2 c0 -7 3 -22 6 -33 5 -19 1
-20 -60 -19 -37 0 -69 4 -73 7 -3 4 15 7 41 7 46 0 48 1 44 25 -4 21 -1 25 18
25 13 0 24 -6 24 -12z m80 3 c0 -6 -9 -9 -20 -8 -11 1 -20 5 -20 9 0 4 9 8 20
8 11 0 20 -4 20 -9z m85 -1 c8 -13 -15 -13 -35 0 -12 8 -11 10 7 10 12 0 25
-4 28 -10z m80 0 c3 -5 -1 -10 -9 -10 -8 0 -18 5 -21 10 -3 6 1 10 9 10 8 0
18 -4 21 -10z m-1050 -50 c-3 -5 -12 -7 -20 -3 -21 7 -19 13 6 13 11 0 18 -4
14 -10z m95 1 c0 -5 -9 -7 -20 -4 -11 3 -20 7 -20 9 0 2 9 4 20 4 11 0 20 -4
20 -9z m100 5 c0 -9 -40 -13 -46 -5 -3 5 6 9 20 9 14 0 26 -2 26 -4z m80 -4
c0 -4 -9 -8 -20 -8 -11 0 -20 4 -20 8 0 4 9 8 20 8 11 0 20 -4 20 -8z m86 1
c-10 -11 -36 -12 -36 -2 0 5 10 9 22 9 12 0 18 -3 14 -7z m94 -2 c0 -5 -9 -7
-20 -4 -11 3 -20 7 -20 9 0 2 9 4 20 4 11 0 20 -4 20 -9z m81 0 c-8 -5 -20 -7
-28 -4 -21 8 -15 13 15 13 20 0 23 -3 13 -9z m99 0 c0 -4 -11 -6 -25 -3 -14 2
-25 6 -25 8 0 2 11 4 25 4 14 0 25 -4 25 -9z m270 5 c0 -9 -40 -13 -46 -5 -3
5 6 9 20 9 14 0 26 -2 26 -4z m90 -5 c0 -4 -11 -6 -25 -3 -14 2 -25 6 -25 8 0
2 11 4 25 4 14 0 25 -4 25 -9z m86 0 c-3 -5 -15 -7 -26 -4 -28 7 -25 13 6 13
14 0 23 -4 20 -9z m-1106 -41 c0 -5 -12 -10 -27 -10 -22 0 -25 2 -13 10 20 13
40 13 40 0z m95 0 c-3 -5 -15 -10 -26 -10 -11 0 -17 5 -14 10 3 6 15 10 26 10
11 0 17 -4 14 -10z m95 0 c0 -5 -12 -10 -26 -10 -14 0 -23 4 -19 10 3 6 15 10
26 10 10 0 19 -4 19 -10z m470 -1 c0 -5 -94 -9 -210 -9 -115 0 -210 4 -210 8
0 5 95 9 210 9 116 0 210 -4 210 -8z m95 0 c4 -5 -5 -9 -19 -9 -14 0 -26 4
-26 8 0 11 39 12 45 1z m95 -1 c0 -4 -12 -8 -26 -8 -14 0 -23 4 -19 9 6 11 45
10 45 -1z m95 2 c4 -6 -5 -10 -19 -10 -14 0 -26 5 -26 10 0 6 9 10 19 10 11 0
23 -4 26 -10z m91 -3 c4 -4 -5 -7 -19 -7 -15 0 -27 4 -27 10 0 11 35 8 46 -3z
m94 2 c0 -11 -37 -12 -43 -1 -3 4 6 8 19 8 13 1 24 -2 24 -7z"/>
<path d="M906 774 c-5 -13 -4 -14 7 -6 10 9 17 8 26 -1 10 -9 11 -8 6 6 -9 22
-31 22 -39 1z"/>
<path d="M543 438 c-13 -21 -11 -246 2 -265 10 -14 35 -16 166 -15 85 0 160 1
167 1 9 1 12 12 10 34 l-3 32 -124 2 c-72 1 -126 6 -130 12 -6 10 -5 130 1
137 2 1 60 4 128 6 l125 3 0 30 0 30 -167 3 c-126 2 -168 -1 -175 -10z"/>
<path d="M942 438 c-17 -17 -16 -142 1 -156 7 -7 65 -13 132 -14 104 -3 118
-5 121 -20 2 -16 -9 -18 -109 -19 -161 -2 -152 1 -155 -36 -2 -18 0 -34 5 -34
4 -1 78 -2 163 -3 188 -2 190 -1 186 96 -1 36 -6 70 -10 76 -5 8 -46 12 -132
12 -117 0 -124 1 -124 20 0 18 8 20 132 22 l132 3 1 30 0 30 -165 3 c-120 2
-169 -1 -178 -10z"/>
<path d="M1327 443 c-2 -5 -3 -69 -3 -143 l1 -134 32 -7 c44 -9 52 0 55 56 l3
50 91 3 91 3 -3 -50 c-4 -61 11 -73 81 -62 8 1 13 222 6 279 0 7 -16 12 -40
12 -44 0 -48 -6 -46 -68 l0 -43 -90 3 -90 3 -1 40 c-2 65 -2 65 -43 65 -22 0
-41 -3 -44 -7z"/>
<path d="M1730 431 c-5 -11 -10 -44 -10 -75 0 -82 8 -86 151 -86 112 0 119 -1
119 -20 0 -19 -7 -20 -112 -21 -62 -1 -122 -2 -133 -3 -15 -1 -21 -9 -23 -33
-2 -22 1 -33 10 -34 7 -1 82 -2 166 -3 180 -2 181 -2 180 89 -1 96 1 95 -144
95 -113 0 -125 2 -122 18 3 15 19 18 133 22 l130 5 0 30 0 30 -167 3 c-157 2
-168 1 -178 -17z"/>
</g>
</svg>
