<?xml version="1.0" standalone="no"?>
<!DOCTYPE svg PUBLIC "-//W3C//DTD SVG 20010904//EN"
 "http://www.w3.org/TR/2001/REC-SVG-20010904/DTD/svg10.dtd">
<svg version="1.0" xmlns="http://www.w3.org/2000/svg"
 width="260.000000pt" height="260.000000pt" viewBox="0 0 260.000000 260.000000"
 preserveAspectRatio="xMidYMid meet">
<metadata>
Created by potrace 1.11, written by Peter Selinger 2001-2013
</metadata>
<g transform="translate(0.000000,260.000000) scale(0.100000,-0.100000)"
fill="#000000" stroke="none">
<path d="M610 1981 c-6 -13 -10 -182 -10 -485 l0 -466 23 -12 c17 -10 162 -12
697 -8 l675 5 7 51 c4 28 4 249 0 490 l-7 439 -687 3 c-671 2 -687 2 -698 -17z
m1345 -411 l0 -375 -643 2 c-354 1 -646 4 -650 7 -8 9 -16 710 -9 731 6 13 76
15 654 13 l648 -3 0 -375z m-605 -460 c24 -24 25 -47 3 -72 -18 -20 -63 -24
-81 -6 -20 20 -14 65 10 82 30 21 44 20 68 -4z"/>
<path d="M1674 1755 c-23 -23 -32 -25 -113 -25 -84 0 -88 -1 -116 -30 -28 -29
-32 -30 -120 -30 -91 0 -91 0 -125 -35 -29 -30 -40 -35 -80 -35 -40 0 -51 -5
-80 -35 -30 -31 -35 -33 -41 -18 -5 13 8 33 49 76 60 61 75 67 104 40 24 -22
53 -6 53 28 0 18 -6 25 -24 27 -13 2 -28 -1 -34 -7 -6 -6 -20 -11 -32 -11 -12
0 -51 -31 -99 -79 -74 -74 -78 -81 -72 -113 13 -68 20 -68 88 0 59 58 67 62
109 62 37 0 50 5 74 30 28 29 32 30 120 30 88 0 92 1 120 30 27 29 33 30 112
30 70 0 86 -3 103 -20 41 -41 110 -14 110 43 0 32 -32 67 -60 67 -12 0 -32
-11 -46 -25z m70 -31 c7 -19 -10 -44 -31 -44 -17 0 -27 24 -19 45 7 20 42 19
50 -1z m-554 -39 c0 -8 -7 -15 -15 -15 -8 0 -15 7 -15 15 0 8 7 15 15 15 8 0
15 -7 15 -15z"/>
<path d="M1139 1532 c-41 -3 -52 -9 -102 -60 -43 -43 -54 -61 -47 -72 8 -12
20 -4 67 43 41 40 66 57 85 57 14 0 31 7 38 15 16 20 14 21 -41 17z"/>
<path d="M1220 1515 c-11 -13 0 -15 87 -15 l99 0 34 -35 c34 -35 34 -35 125
-35 79 0 92 -2 103 -20 16 -26 73 -27 95 -2 49 54 -18 137 -78 98 -14 -9 -25
-21 -25 -26 0 -6 -37 -10 -88 -10 -85 0 -89 1 -117 30 -28 29 -31 30 -126 30
-74 0 -100 -4 -109 -15z m520 -50 c10 -12 10 -18 0 -30 -25 -30 -61 -7 -46 30
3 8 12 15 19 15 8 0 20 -7 27 -15z"/>
<path d="M1423 1365 c-59 -47 -135 -63 -215 -46 -57 12 -62 11 -81 -8 l-21
-20 40 -17 c25 -11 68 -17 119 -18 68 -1 88 3 135 26 30 15 75 48 100 73 l44
45 -39 -1 c-29 0 -51 -9 -82 -34z"/>
<path d="M1194 953 c-40 -4 -42 -5 -47 -45 -4 -29 -16 -51 -43 -79 l-38 -39
227 0 c125 0 227 4 227 8 0 5 -13 21 -29 36 -21 21 -31 42 -36 77 l-7 49 -106
-2 c-59 -1 -126 -3 -148 -5z"/>
<path d="M1765 870 c3 -5 8 -10 11 -10 2 0 4 5 4 10 0 6 -5 10 -11 10 -5 0 -7
-4 -4 -10z"/>
<path d="M1725 840 c3 -5 8 -10 11 -10 2 0 4 5 4 10 0 6 -5 10 -11 10 -5 0 -7
-4 -4 -10z"/>
<path d="M708 670 c-32 -40 -55 -77 -52 -81 7 -11 1291 -12 1298 -1 3 5 -16
38 -42 75 l-47 66 -360 1 c-198 0 -445 3 -550 6 l-190 6 -57 -72z m122 40 c0
-5 -12 -10 -26 -10 -14 0 -23 4 -19 10 3 6 15 10 26 10 10 0 19 -4 19 -10z
m85 0 c-3 -5 -17 -10 -31 -10 -14 0 -22 4 -19 10 3 6 17 10 31 10 14 0 22 -4
19 -10z m85 0 c0 -5 -12 -10 -26 -10 -14 0 -23 4 -19 10 3 6 15 10 26 10 10 0
19 -4 19 -10z m85 0 c-3 -5 -17 -10 -31 -10 -14 0 -22 4 -19 10 3 6 17 10 31
10 14 0 22 -4 19 -10z m85 0 c0 -5 -11 -10 -25 -10 -14 0 -25 5 -25 10 0 6 11
10 25 10 14 0 25 -4 25 -10z m80 0 c0 -5 -12 -10 -26 -10 -14 0 -23 4 -19 10
3 6 15 10 26 10 10 0 19 -4 19 -10z m90 0 c0 -5 -11 -10 -25 -10 -14 0 -25 5
-25 10 0 6 11 10 25 10 14 0 25 -4 25 -10z m80 0 c0 -5 -11 -10 -25 -10 -14 0
-25 5 -25 10 0 6 11 10 25 10 14 0 25 -4 25 -10z m90 0 c0 -5 -11 -10 -25 -10
-14 0 -25 5 -25 10 0 6 11 10 25 10 14 0 25 -4 25 -10z m84 -6 c3 -9 6 -24 6
-35 0 -17 -8 -19 -71 -19 -52 0 -70 3 -67 13 3 6 24 13 47 15 36 3 41 6 36 23
-5 15 -2 19 18 19 14 0 28 -7 31 -16z m86 6 c0 -5 -11 -10 -25 -10 -14 0 -25
5 -25 10 0 6 11 10 25 10 14 0 25 -4 25 -10z m80 0 c0 -5 -11 -10 -25 -10 -14
0 -25 5 -25 10 0 6 11 10 25 10 14 0 25 -4 25 -10z m85 0 c3 -6 -5 -10 -19
-10 -14 0 -28 5 -31 10 -3 6 5 10 19 10 14 0 28 -4 31 -10z m-1047 -42 c-3 -7
-17 -15 -33 -16 -25 -3 -27 -2 -16 12 16 19 55 22 49 4z m90 0 c-3 -7 -17 -15
-33 -16 -25 -3 -27 -2 -16 12 16 19 55 22 49 4z m90 0 c-3 -7 -17 -14 -31 -16
-21 -3 -26 0 -21 12 7 19 58 22 52 4z m90 0 c-5 -15 -58 -24 -58 -10 0 15 12
22 38 22 14 0 22 -5 20 -12z m265 -3 c-3 -13 -53 -20 -53 -7 0 15 13 23 35 20
11 -2 19 -7 18 -13z m95 -2 c2 -9 -7 -13 -27 -13 -30 0 -39 9 -24 24 11 10 46
3 51 -11z m262 2 c0 -9 -9 -15 -25 -15 -16 0 -25 6 -25 15 0 9 9 15 25 15 16
0 25 -6 25 -15z m90 -1 c0 -10 -7 -14 -22 -12 -32 5 -35 28 -4 28 17 0 26 -5
26 -16z m88 -2 c3 -9 -3 -13 -19 -10 -12 1 -24 9 -27 16 -3 9 3 13 19 10 12
-1 24 -9 27 -16z m-713 -2 c-3 -5 -17 -10 -31 -10 -13 0 -24 5 -24 10 0 6 14
10 31 10 17 0 28 -4 24 -10z m90 0 c-3 -5 -17 -10 -31 -10 -13 0 -24 5 -24 10
0 6 14 10 31 10 17 0 28 -4 24 -10z m-480 -40 c-3 -5 -17 -10 -31 -10 -14 0
-22 4 -19 10 3 6 17 10 31 10 14 0 22 -4 19 -10z m95 0 c0 -5 -14 -10 -31 -10
-17 0 -28 4 -24 10 3 6 17 10 31 10 13 0 24 -4 24 -10z m95 0 c-3 -5 -17 -10
-31 -10 -13 0 -24 5 -24 10 0 6 14 10 31 10 17 0 28 -4 24 -10z m475 0 c0 -6
-80 -10 -221 -10 -144 0 -218 3 -214 10 4 6 88 10 221 10 136 0 214 -4 214
-10z m90 0 c0 -5 -13 -10 -30 -10 -16 0 -30 5 -30 10 0 6 14 10 30 10 17 0 30
-4 30 -10z m95 0 c4 -6 -7 -10 -24 -10 -17 0 -31 5 -31 10 0 6 11 10 24 10 14
0 28 -4 31 -10z m95 0 c0 -5 -13 -10 -30 -10 -16 0 -30 5 -30 10 0 6 14 10 30
10 17 0 30 -4 30 -10z m90 0 c0 -5 -11 -10 -25 -10 -14 0 -25 5 -25 10 0 6 11
10 25 10 14 0 25 -4 25 -10z m95 0 c4 -6 -7 -10 -24 -10 -17 0 -31 5 -31 10 0
6 11 10 24 10 14 0 28 -4 31 -10z"/>
<path d="M546 424 c-8 -20 -8 -218 0 -238 5 -14 30 -16 170 -16 l164 0 0 25 0
24 -131 3 -131 3 0 80 0 80 131 3 131 3 0 24 0 25 -164 0 c-140 0 -165 -2
-170 -16z"/>
<path d="M944 427 c-3 -8 -4 -43 -2 -78 l3 -64 128 -3 127 -3 0 -29 0 -30
-130 0 -130 0 0 -25 0 -25 164 0 c184 0 176 -3 176 76 0 82 -3 84 -145 84
l-125 0 0 30 0 29 133 3 c124 3 132 4 132 23 0 19 -8 20 -163 23 -131 2 -163
0 -168 -11z"/>
<path d="M1330 305 l0 -135 41 0 40 0 -2 53 -3 52 97 3 97 3 0 -56 0 -55 35 0
35 0 0 135 0 135 -35 0 -35 0 0 -55 0 -56 -97 3 -98 3 -3 53 -3 52 -35 0 -34
0 0 -135z"/>
<path d="M1736 424 c-11 -28 -6 -120 6 -132 8 -8 53 -12 135 -12 l123 0 0 -30
0 -29 -132 -3 c-130 -3 -133 -4 -136 -26 l-3 -22 168 2 168 3 3 66 c2 46 -1
69 -11 77 -8 7 -63 13 -133 14 l-119 3 0 25 0 25 133 3 132 3 0 24 0 25 -164
0 c-140 0 -165 -2 -170 -16z"/>
</g>
</svg>
